<?xml version="1.0" encoding="UTF-8"?>
<svg id="b" data-name="レイヤー 2" xmlns="http://www.w3.org/2000/svg" viewBox="0 0 166.84 32.76">
  <g id="c" data-name="レイヤー 1">
    <g>
      <path d="M36.2,28.23c0,.2,.17,.37,.38,.37h1.44c.21,0,.38-.17,.38-.37v-7.77c0-.21,.17-.38,.38-.38h2.57c.21,0,.38-.17,.38-.37v-1.26c0-.21-.17-.38-.38-.38h-2.57c-.21,0-.38-.17-.38-.38v-2.89c0-.21,.17-.37,.38-.37h2.57c.21,0,.38-.17,.38-.37v-1.26c0-.21-.17-.37-.38-.37h-4.76c-.21,0-.38,.17-.38,.37v15.43Z" style="fill: #4d4d4d;"/>
      <path d="M65.84,12.43c-.21,0-.38,.17-.38,.37v1.26c0,.21,.17,.37,.38,.37h1.07c.21,0,.38,.17,.38,.37v13.42c0,.2,.17,.37,.37,.37h1.45c.21,0,.38-.17,.38-.37V14.81c0-.21,.17-.37,.38-.37h1.07c.21,0,.37-.17,.37-.37v-1.26c0-.21-.17-.37-.37-.37h-5.08Z" style="fill: #4d4d4d;"/>
      <path d="M61.04,20.08c.21,0,.38,.17,.38,.38v5.77c0,.21-.17,.37-.38,.37h-2.57c-.21,0-.38,.17-.38,.37v1.26c0,.2,.17,.37,.38,.37h3.26c1.21,0,1.87-.67,1.87-1.87v-6.78c0-1.21-.67-1.88-1.87-1.88h-1.26c-.21,0-.37-.17-.37-.38v-2.89c0-.21,.17-.37,.37-.37h2.42c.21,0,.38-.17,.38-.37v-1.26c0-.21-.17-.37-.38-.37h-3.11c-1.21,0-1.87,.67-1.87,1.88v3.9c0,1.21,.67,1.87,1.87,1.87h1.26Z" style="fill: #4d4d4d;"/>
      <path d="M87.59,20.84l1.25,7.39c.03,.2-.11,.37-.32,.37h-1.51c-.21,0-.4-.17-.43-.37l-1.49-9.73c-.04-.23,.09-.43,.32-.43h.33c.21,0,.38-.17,.38-.38v-2.89c0-.21-.17-.37-.38-.37h-.84c-.21,0-.38,.17-.38,.37v13.42c0,.2-.17,.37-.38,.37h-1.45c-.21,0-.37-.17-.37-.37V12.8c0-.21,.17-.37,.37-.37h3.73c1.21,0,1.88,.67,1.88,1.88v3.78c0,.88-.31,1.39-1.02,1.46,.09,.2,.23,.84,.29,1.29Z" style="fill: #4d4d4d;"/>
      <path d="M93.92,20.08c.21,0,.37,.17,.37,.38v5.77c0,.21-.17,.37-.37,.37h-2.57c-.21,0-.38,.17-.38,.37v1.26c0,.2,.17,.37,.38,.37h3.26c1.21,0,1.88-.67,1.88-1.87v-6.78c0-1.21-.67-1.88-1.88-1.88h-1.26c-.21,0-.37-.17-.37-.38v-2.89c0-.21,.17-.37,.37-.37h2.42c.21,0,.38-.17,.38-.37v-1.26c0-.21-.17-.37-.38-.37h-3.11c-1.21,0-1.88,.67-1.88,1.88v3.9c0,1.21,.67,1.87,1.88,1.87h1.26Z" style="fill: #4d4d4d;"/>
      <path d="M44.42,12.43h1.44c.21,0,.37,.17,.37,.37v15.43c0,.21-.17,.38-.38,.38h-1.45c-.21,0-.37-.17-.37-.37V12.8c0-.21,.17-.38,.38-.38Z" style="fill: #4d4d4d;"/>
      <path d="M75.04,18.07c-1.21,0-1.88,.67-1.88,1.88v6.78c0,1.21,.67,1.87,1.88,1.87h3.59c.21,0,.38-.17,.38-.37V14.3c0-1.21-.67-1.88-1.88-1.88h-3.24c-.21,0-.37,.17-.37,.37v1.26c0,.21,.17,.37,.37,.37h2.54c.21,0,.37,.17,.37,.37v2.89c0,.21-.17,.38-.37,.38h-1.4Zm1.4,2.01c.21,0,.37,.17,.37,.38v5.77c0,.21-.17,.37-.37,.37h-.71c-.21,0-.37-.17-.37-.37v-5.77c0-.21,.17-.38,.37-.38h.71Z" style="fill: #4d4d4d;"/>
      <path d="M56.27,28.23l-2-8.58c-.07-.3-.12-.57-.04-.91l1.26-5.94c.04-.21-.09-.37-.3-.37h-1.44c-.21,0-.4,.17-.44,.37l-.77,4.34-.77-4.34c-.04-.21-.24-.37-.44-.37h-1.44c-.21,0-.34,.17-.3,.37l1.26,5.94c.07,.34,.02,.61-.04,.91l-2,8.58c-.05,.2,.08,.37,.29,.37h1.44c.21,0,.41-.17,.45-.37l1.54-7.3,1.54,7.3c.04,.2,.25,.37,.45,.37h1.45c.21,0,.34-.17,.29-.37Z" style="fill: #4d4d4d;"/>
    </g>
    <g>
      <path d="M23.84,29.88c.37,.04,.49-.33,.21-.53l-7.32-5.31c-.56-.41-1.35-.4-1.91,0l-5.42,3.94c-.31,.23-.23,.53,.14,.57l14.3,1.33Z" style="fill: #094;"/>
      <path d="M6.15,29.77c.08,.36,.46,.36,.57,.04l3.06-9.43c.21-.66-.04-1.41-.59-1.82L3.22,14.22c-.31-.23-.58-.06-.5,.31l3.43,15.24Z" style="fill: #6fba2c;"/>
      <path d="M.19,12.08c-.32,.18-.2,.55,.14,.55H11.12c.69,0,1.33-.47,1.55-1.12l2.49-7.67c.12-.37-.13-.57-.45-.38L.19,12.08Z" style="fill: #fabe00;"/>
      <path d="M15.78,.11c-.27-.25-.59-.02-.48,.3l3.6,11.1c.21,.66,.86,1.12,1.54,1.12h8.74c.39,0,.5-.3,.22-.55L15.78,.11Z" style="fill: #e60012;"/>
      <path d="M32.96,11.55c.15-.34-.16-.57-.44-.37l-10.15,7.37c-.56,.41-.8,1.17-.59,1.82l2.91,8.96c.12,.37,.43,.39,.58,.04l7.68-17.82Z" style="fill: #0075c2;"/>
    </g>
    <g>
      <path d="M110.02,24.94h-5.62l-1.9,3.63h-1.92l7.54-13.88h1.57l2.74,13.88h-1.76l-.66-3.63Zm-4.83-1.5h4.57l-1.15-6.47-3.41,6.47Z" style="fill: #4d4d4d;"/>
      <path d="M117.51,18.25l-.22,1.15c.86-.91,1.91-1.36,3.14-1.33,.65,.01,1.21,.16,1.66,.45,.45,.29,.77,.69,.94,1.21,.97-1.13,2.11-1.68,3.42-1.66,1.03,.03,1.79,.37,2.28,1.04,.49,.67,.67,1.56,.54,2.69l-1.13,6.78h-1.72l1.12-6.79c.04-.33,.04-.63,0-.91-.12-.86-.69-1.31-1.7-1.32-.63-.01-1.2,.18-1.71,.59-.51,.4-.84,.93-.99,1.59l-1.17,6.85h-1.73l1.14-6.79c.08-.71-.02-1.25-.32-1.63-.29-.38-.75-.58-1.38-.59-1.07-.03-1.93,.46-2.56,1.47l-1.31,7.54h-1.73l1.79-10.31h1.62Z" style="fill: #4d4d4d;"/>
      <path d="M140.13,23.46c-.13,1.05-.41,1.99-.85,2.83s-.98,1.47-1.63,1.88-1.37,.61-2.15,.6c-1.19-.03-2.11-.43-2.74-1.21l-.92,4.97h-1.73l2.48-14.28h1.56l-.19,1.14c.85-.91,1.87-1.36,3.06-1.33,.99,.03,1.76,.39,2.32,1.1s.84,1.68,.88,2.92c0,.41-.01,.8-.05,1.18l-.03,.2Zm-1.7-.19l.05-.8c0-.93-.18-1.64-.53-2.13-.35-.49-.86-.75-1.53-.78-1-.03-1.86,.45-2.58,1.42l-.87,4.94c.39,.91,1.08,1.38,2.09,1.41,.86,.02,1.59-.32,2.19-1,.6-.69,1-1.71,1.19-3.06Z" style="fill: #4d4d4d;"/>
      <path d="M143.38,28.57h-1.72l2.54-14.64h1.73l-2.55,14.64Z" style="fill: #4d4d4d;"/>
      <path d="M148.07,28.57h-1.72l1.79-10.31h1.72l-1.79,10.31Zm1.42-14.08c.29-.01,.53,.07,.73,.26,.19,.19,.29,.43,.29,.74,0,.3-.1,.54-.29,.73-.19,.19-.43,.29-.73,.3s-.54-.07-.73-.26c-.19-.18-.28-.43-.28-.72,0-.3,.1-.55,.29-.74,.18-.2,.43-.3,.72-.31Z" style="fill: #4d4d4d;"/>
      <path d="M151.73,28.57l1.56-8.95h-1.59l.24-1.36h1.58l.17-1.22c.16-1.04,.56-1.84,1.2-2.43,.67-.61,1.52-.91,2.55-.9,.33,0,.73,.05,1.23,.16l-.21,1.45c-.3-.06-.61-.1-.92-.11-.6,0-1.08,.19-1.45,.56-.37,.37-.6,.86-.69,1.48l-.15,1.02h2.13l-.24,1.36h-2.13l-1.55,8.95h-1.73Z" style="fill: #4d4d4d;"/>
      <path d="M161.26,25.97l3.67-7.71h1.91l-6.12,12.03c-.85,1.67-1.94,2.5-3.28,2.48-.23,0-.58-.06-1.04-.17l.15-1.43,.45,.05c.55,.03,1.02-.1,1.42-.37,.4-.27,.75-.71,1.05-1.31l.62-1.18-1.78-10.09h1.8l1.15,7.71Z" style="fill: #4d4d4d;"/>
    </g>
  </g>
</svg>