<svg xmlns="http://www.w3.org/2000/svg" viewBox="0 0 462.65 137">
  <defs>
    <style>
      .a {
        fill: #727171;
      }

      .b {
        fill: #094;
      }

      .c {
        fill: #6fba2c;
      }

      .d {
        fill: #fabe00;
      }

      .e {
        fill: #e60012;
      }

      .f {
        fill: #0075c2;
      }

      .g {
        fill: #231815;
      }
    </style>
  </defs>
  <g>
    <g>
      <g>
        <path class="a"
          d="M153.67,119.84a1.6,1.6,0,0,0,1.6,1.59h6.12a1.6,1.6,0,0,0,1.6-1.59v-33a1.6,1.6,0,0,1,1.59-1.6h10.9a1.6,1.6,0,0,0,1.6-1.59V78.32a1.6,1.6,0,0,0-1.6-1.6h-10.9A1.59,1.59,0,0,1,163,75.13V62.87a1.59,1.59,0,0,1,1.59-1.59h10.9a1.6,1.6,0,0,0,1.6-1.59V54.35a1.6,1.6,0,0,0-1.6-1.59H155.27a1.6,1.6,0,0,0-1.6,1.59Z" />
        <path class="a"
          d="M279.5,52.76a1.6,1.6,0,0,0-1.6,1.59v5.34a1.6,1.6,0,0,0,1.6,1.59H284a1.6,1.6,0,0,1,1.59,1.59v57a1.59,1.59,0,0,0,1.59,1.59h6.13a1.6,1.6,0,0,0,1.6-1.59v-57a1.59,1.59,0,0,1,1.59-1.59h4.54a1.59,1.59,0,0,0,1.59-1.59V54.35a1.59,1.59,0,0,0-1.59-1.59Z" />
        <path class="a"
          d="M259.09,85.24a1.6,1.6,0,0,1,1.59,1.6v24.48a1.59,1.59,0,0,1-1.59,1.59h-10.9a1.6,1.6,0,0,0-1.6,1.59v5.34a1.6,1.6,0,0,0,1.6,1.59H262c5.12,0,8-2.84,8-8V84.69c0-5.13-2.84-8-8-8h-5.36a1.59,1.59,0,0,1-1.59-1.59V62.87a1.6,1.6,0,0,1,1.59-1.59H267a1.59,1.59,0,0,0,1.59-1.59V54.35A1.59,1.59,0,0,0,267,52.76H253.73c-5.11,0-7.95,2.84-7.95,8V77.28c0,5.12,2.84,8,7.95,8Z" />
        <path class="a"
          d="M371.8,88.47l5.29,31.37a1.33,1.33,0,0,1-1.34,1.59h-6.4a2,2,0,0,1-1.84-1.59l-6.33-41.29a1.45,1.45,0,0,1,1.36-1.83H364a1.59,1.59,0,0,0,1.59-1.59V62.87A1.59,1.59,0,0,0,364,61.28h-3.57a1.59,1.59,0,0,0-1.59,1.59v57a1.6,1.6,0,0,1-1.6,1.59h-6.13a1.6,1.6,0,0,1-1.59-1.59V54.35a1.59,1.59,0,0,1,1.59-1.59h15.84c5.12,0,8,2.84,8,8v16c0,3.75-1.32,5.89-4.32,6.21A30.81,30.81,0,0,1,371.8,88.47Z" />
        <path class="a"
          d="M398.66,85.24a1.6,1.6,0,0,1,1.59,1.6v24.48a1.59,1.59,0,0,1-1.59,1.59h-10.9a1.6,1.6,0,0,0-1.6,1.59v5.34a1.6,1.6,0,0,0,1.6,1.59h13.85c5.12,0,8-2.84,8-8V84.69c0-5.13-2.84-8-8-8h-5.36a1.59,1.59,0,0,1-1.59-1.59V62.87a1.6,1.6,0,0,1,1.59-1.59h10.27a1.59,1.59,0,0,0,1.59-1.59V54.35a1.59,1.59,0,0,0-1.59-1.59H393.31c-5.13,0-8,2.84-8,8V77.28c0,5.12,2.84,8,8,8Z" />
        <path class="a"
          d="M194.67,121.43a1.6,1.6,0,0,0,1.59-1.59V54.35a1.59,1.59,0,0,0-1.59-1.59h-6.13a1.6,1.6,0,0,0-1.6,1.59v65.49a1.6,1.6,0,0,0,1.6,1.59Z" />
        <path class="a"
          d="M318.54,76.72c-5.13,0-8,2.84-8,8v28.78c0,5.12,2.83,8,8,8h15.25a1.6,1.6,0,0,0,1.6-1.59V60.72c0-5.12-2.85-8-8-8H313.68a1.59,1.59,0,0,0-1.59,1.59v5.34a1.59,1.59,0,0,0,1.59,1.59h10.8a1.6,1.6,0,0,1,1.59,1.59V75.13a1.59,1.59,0,0,1-1.59,1.59Zm5.94,8.52a1.6,1.6,0,0,1,1.59,1.6v24.48a1.6,1.6,0,0,1-1.59,1.59h-3a1.59,1.59,0,0,1-1.59-1.59V86.84a1.6,1.6,0,0,1,1.59-1.6Z" />
        <path class="a"
          d="M238.86,119.84l-8.48-36.42a8.46,8.46,0,0,1-.19-3.86l5.37-25.21a1.25,1.25,0,0,0-1.26-1.59h-6.13a2,2,0,0,0-1.88,1.59L223,72.76l-3.26-18.41a2,2,0,0,0-1.89-1.59h-6.12a1.25,1.25,0,0,0-1.26,1.59l5.37,25.21a8.46,8.46,0,0,1-.19,3.86l-8.48,36.42a1.23,1.23,0,0,0,1.23,1.59h6.13a2.1,2.1,0,0,0,1.93-1.59l6.54-31,6.54,31a2.1,2.1,0,0,0,1.93,1.59h6.13A1.23,1.23,0,0,0,238.86,119.84Z" />
      </g>
      <g>
        <path class="b"
          d="M101.19,126.84c1.56.16,2.08-1.38.91-2.24L71,102.05a7,7,0,0,0-8.11,0l-23,16.73c-1.33,1-1,2.26.6,2.41Z" />
        <path class="c"
          d="M26.11,126.36a1.21,1.21,0,0,0,2.4.16l13-40A7,7,0,0,0,39,78.77L13.66,60.36c-1.33-1-2.46-.25-2.11,1.32Z" />
        <path class="d"
          d="M.8,51.26a1.21,1.21,0,0,0,.58,2.34H47.19a7,7,0,0,0,6.56-4.77L64.33,16.28c.5-1.55-.54-2.41-1.91-1.59Z" />
        <path class="e"
          d="M67,.45c-1.16-1-2.49-.1-2,1.27l15.3,47.11a7,7,0,0,0,6.55,4.77h37.11c1.64,0,2.13-1.25.93-2.31Z" />
        <path class="f"
          d="M139.9,49c.63-1.42-.68-2.4-1.85-1.55L95,78.77a7,7,0,0,0-2.5,7.72l12.37,38c.51,1.56,1.85,1.64,2.48.17Z" />
      </g>
    </g>
    <g>
      <path class="g"
        d="M168.94,135.45a6.86,6.86,0,0,0-3.91-1.12,4.63,4.63,0,0,0-4.58,3.63c-.33,1.57.08,2.55,3.14,4.57,3.31,2.16,4.11,4.3,3.51,7.08a8.44,8.44,0,0,1-8.56,6.92,10.56,10.56,0,0,1-4.87-1.05l.68-3.18a8.37,8.37,0,0,0,4.3,1.58A5.14,5.14,0,0,0,163.8,150c.4-1.88.14-3-2.71-4.95-3.83-2.66-4.49-4.16-3.81-7.3.85-4,4.37-6.1,8.07-6.1a11,11,0,0,1,4.22.79Z" />
      <path class="g"
        d="M190.56,146c1-4.16,2.92-5.56,4.81-5.56,2.34,0,3.09,1.86,2.31,5.56Zm9.57,2.23.33-1.58c1.11-5.23-.43-8.44-4.45-8.44-4.42,0-7.62,3.56-8.82,9.13s.49,9.16,5.2,9.16a13.74,13.74,0,0,0,5.22-1.05l.43-2.65a9.32,9.32,0,0,1-4.4,1.46c-3.24,0-4.44-1.91-3.56-6Z" />
      <path class="g"
        d="M206.05,146c1-4.16,2.92-5.56,4.82-5.56,2.32,0,3.08,1.86,2.3,5.56Zm9.58,2.23.33-1.58c1.11-5.23-.43-8.44-4.45-8.44-4.43,0-7.63,3.56-8.83,9.13s.5,9.16,5.2,9.16a13.7,13.7,0,0,0,5.22-1.05l.42-2.65a9.21,9.21,0,0,1-4.39,1.46c-3.24,0-4.44-1.91-3.56-6Z" />
      <path class="g"
        d="M255.7,152.44c-.28,1.29-.45,2.58-.68,3.85h-2.83l.46-2.66h-.07a5.85,5.85,0,0,1-5.13,2.9c-3.1,0-4.81-1.78-4-5.69l2.63-12.36H249L246.6,150c-.61,2.82.18,4,2.06,4,2.3,0,4.11-1.6,4.8-4.81l2.28-10.72h2.94Z" />
      <path class="g"
        d="M290.09,157.85c-1.73,3.48-2.69,4.13-5.23,4.13a7.88,7.88,0,0,1-1.95-.22l.7-2.65a3.29,3.29,0,0,0,1.53.35c.84,0,1.55-.39,2.43-2.23l.3-.67-1.76-18.08h3.07l.88,14.52h.07l6.8-14.52h2.92Z" />
      <path class="g"
        d="M302.6,147.37c1-4.46,2.74-6.76,5.54-6.76s3.58,2.3,2.63,6.76-2.74,6.78-5.53,6.78S301.64,151.85,302.6,147.37Zm-3.07,0c-1.2,5.6.49,9.16,5.2,9.16s7.92-3.56,9.11-9.16-.5-9.13-5.2-9.13S300.72,141.8,299.53,147.37Z" />
      <path class="g"
        d="M328.7,152.44c-.27,1.29-.44,2.58-.68,3.85H325.2l.46-2.66h-.07a5.88,5.88,0,0,1-5.12,2.9c-3.11,0-4.82-1.78-4-5.69l2.64-12.36h2.92L319.6,150c-.6,2.82.18,4,2.06,4,2.31,0,4.13-1.6,4.81-4.81l2.28-10.72h2.93Z" />
      <path class="g"
        d="M335.13,142.33c.27-1.3.45-2.59.68-3.85h2.82l-.48,2.8h.07a6,6,0,0,1,5.7-3l-.62,2.9a5.37,5.37,0,0,0-1.09-.11c-2.27,0-4.29,2-5.12,5.83l-2,9.43h-2.93Z" />
      <path class="g"
        d="M381,152.44c-.28,1.29-.45,2.58-.69,3.85h-2.82l.46-2.66h-.07a5.86,5.86,0,0,1-5.12,2.9c-3.11,0-4.82-1.78-4-5.69l2.64-12.36h2.92L371.92,150c-.61,2.82.18,4,2.06,4,2.29,0,4.11-1.6,4.8-4.81l2.29-10.72H384Z" />
      <path class="g"
        d="M384.43,152.83a6.75,6.75,0,0,0,3.9,1.32c2.23,0,3.63-1.15,3.92-2.51s-.18-2.06-1.67-2.79l-1.77-.87c-2.3-1.15-3-2.31-2.51-4.57a6.77,6.77,0,0,1,6.82-5.17,9.55,9.55,0,0,1,3.64.63l-.68,2.51a7.4,7.4,0,0,0-3.33-.77,3.26,3.26,0,0,0-3.45,2.45c-.3,1.42.57,2.22,2.37,3l.95.43c2,.87,3,2.34,2.55,4.53a6.54,6.54,0,0,1-6.88,5.52,9.41,9.41,0,0,1-4.61-1.05Z" />
      <path class="g" d="M401.45,138.48h2.93l-3.79,17.81h-2.94Zm4.47-6.53-.75,3.5H402l.74-3.5Z" />
      <path class="g"
        d="M408.1,142.33c.27-1.3.45-2.59.68-3.85h2.82l-.46,2.66h.07a5.86,5.86,0,0,1,5.12-2.9c3.1,0,4.82,1.78,4,5.68l-2.64,12.37h-2.93l2.45-11.48c.6-2.83-.18-4.05-2.07-4.05-2.3,0-4.12,1.59-4.79,4.81L408,156.29h-2.92Z" />
      <path class="g"
        d="M426.33,146c1-4.16,2.92-5.56,4.81-5.56,2.33,0,3.1,1.86,2.3,5.56Zm9.57,2.23.34-1.58c1.12-5.23-.43-8.44-4.45-8.44-4.43,0-7.64,3.56-8.82,9.13s.47,9.16,5.19,9.16a13.66,13.66,0,0,0,5.22-1.05l.44-2.65a9.32,9.32,0,0,1-4.41,1.46c-3.25,0-4.44-1.91-3.56-6Z" />
      <path class="g"
        d="M437.4,152.83a6.73,6.73,0,0,0,3.9,1.32c2.24,0,3.64-1.15,3.93-2.51s-.19-2.06-1.67-2.79l-1.77-.87c-2.3-1.15-3-2.31-2.52-4.57a6.8,6.8,0,0,1,6.83-5.17,9.63,9.63,0,0,1,3.64.63l-.67,2.51a7.55,7.55,0,0,0-3.34-.77,3.24,3.24,0,0,0-3.45,2.45c-.3,1.42.56,2.22,2.38,3l.93.43c2,.87,3,2.34,2.55,4.53a6.53,6.53,0,0,1-6.89,5.52,9.3,9.3,0,0,1-4.59-1.05Z" />
      <path class="g"
        d="M450.31,152.83a6.79,6.79,0,0,0,3.92,1.32c2.23,0,3.62-1.15,3.91-2.51s-.2-2.06-1.67-2.79L454.7,148c-2.3-1.15-3-2.31-2.53-4.57a6.81,6.81,0,0,1,6.84-5.17,9.59,9.59,0,0,1,3.64.63l-.68,2.51a7.44,7.44,0,0,0-3.33-.77,3.23,3.23,0,0,0-3.44,2.45c-.32,1.42.56,2.22,2.35,3l1,.43c2,.87,3,2.34,2.54,4.53a6.55,6.55,0,0,1-6.89,5.52,9.34,9.34,0,0,1-4.6-1.05Z" />
      <path class="g"
        d="M230.31,140.92h-.08a3.8,3.8,0,0,0-4-2.68c-3.66,0-6.77,3-8.1,9.13s.54,9.16,4.2,9.16a6.52,6.52,0,0,0,5.29-2.86h.07l-.46,2.62h2.83c.19-1.08.33-2.2.57-3.29l4.49-21h-2.94Zm-1.37,6.45c-1,4.48-2.69,6.78-5.36,6.78s-3.42-2.3-2.47-6.78,2.66-6.76,5.36-6.76S229.89,142.91,228.94,147.37Z" />
      <path class="g"
        d="M184.68,147.37c1.31-6.13-.53-9.13-4.19-9.13a6.51,6.51,0,0,0-5.29,2.86h-.07l.45-2.62h-2.81c-.2,1.08-.34,2.2-.56,3.28L168,161.29H171l1.6-7.46h.06a3.82,3.82,0,0,0,4,2.7c3.66,0,6.78-3,8.09-9.16m-10.74,0c.95-4.46,2.66-6.76,5.35-6.76s3.42,2.3,2.46,6.76-2.67,6.78-5.35,6.78S173,151.85,173.94,147.37Z" />
      <path class="g"
        d="M262.31,153.83h.07a3.82,3.82,0,0,0,4,2.7c3.65,0,6.77-3,8.09-9.16s-.53-9.13-4.19-9.13A6.5,6.5,0,0,0,265,141.1h-.07l.45-2.62h-2.82c-.19,1.08-.34,2.2-.56,3.28l-4.17,19.53h2.93Zm1.38-6.46c1-4.46,2.66-6.76,5.36-6.76s3.41,2.3,2.46,6.76-2.67,6.78-5.36,6.78S262.73,151.85,263.69,147.37Z" />
      <path class="g"
        d="M358.51,134.43h2.36c3.24,0,4.12,1.75,3.67,3.84-.55,2.62-2.46,4.19-5.9,4.19h-1.83Zm-7.73,21.86h5.9c5.35,0,8.36-3.29,9.08-6.68s-.7-5.65-3.29-6l0-.07a7.19,7.19,0,0,0,5.19-5.4c.77-3.61-.77-6.19-5.51-6.19H356Zm5.5-11.32h3c3,0,4,1.92,3.44,4.45a5.45,5.45,0,0,1-5.66,4.35h-2.64Z" />
    </g>
  </g>
</svg>
